<?xml version="1.0" standalone="no"?>
<!DOCTYPE svg PUBLIC "-//W3C//DTD SVG 20010904//EN"
 "http://www.w3.org/TR/2001/REC-SVG-20010904/DTD/svg10.dtd">
<svg version="1.0" xmlns="http://www.w3.org/2000/svg"
 width="1866.000000pt" height="1920.000000pt" viewBox="0 0 1866.000000 1920.000000"
 preserveAspectRatio="xMidYMid meet">
<metadata>
Created by potrace 1.16, written by Peter Selinger 2001-2019
</metadata>
<g transform="translate(0.000000,1920.000000) scale(0.100000,-0.100000)"
fill="#000000" stroke="none">
<path d="M8972 19185 c-402 -73 -718 -339 -855 -722 -76 -211 -77 -492 -3
-710 87 -256 271 -478 502 -604 l74 -41 -2 -316 -3 -317 -180 -12 c-1115 -76
-2088 -371 -2572 -782 l-73 -61 -318 0 c-325 0 -487 -8 -692 -36 -1022 -135
-1962 -638 -2644 -1414 -580 -660 -944 -1483 -1039 -2350 l-12 -115 -70 -6
c-93 -9 -145 -24 -233 -67 -518 -256 -878 -1206 -849 -2242 23 -824 260 -1517
642 -1879 97 -91 190 -151 297 -189 61 -22 91 -26 185 -26 l112 -1 27 -110
c39 -159 137 -457 201 -608 511 -1215 1513 -2106 2778 -2472 83 -24 149 -47
148 -52 -1 -4 -411 -915 -912 -2023 -501 -1108 -908 -2016 -906 -2018 5 -5
-413 -209 4955 2413 707 345 1366 667 1465 715 99 48 302 147 450 220 149 73
333 163 410 200 77 37 283 138 459 224 l319 156 1362 0 c1359 0 1534 4 1790
36 1140 145 2173 743 2869 1662 362 479 616 1024 759 1632 6 25 8 25 109 25
58 0 125 6 153 14 426 120 774 673 919 1463 46 249 60 419 60 728 0 296 -12
452 -55 700 -107 624 -375 1157 -687 1369 -124 84 -217 120 -337 130 l-70 6
-17 140 c-116 952 -521 1803 -1181 2481 -343 353 -700 615 -1142 839 -364 185
-771 321 -1167 390 -316 55 -352 57 -1012 62 l-618 5 -72 60 c-489 413 -1430
698 -2583 783 l-93 7 0 318 0 319 58 32 c93 52 182 122 263 206 457 472 395
1235 -131 1632 -92 69 -232 142 -328 170 -166 50 -360 63 -510 36z m5247
-6483 c353 -67 651 -185 923 -365 593 -395 968 -988 1075 -1702 16 -109 18
-206 18 -1035 0 -1001 0 -1003 -62 -1265 -212 -900 -927 -1610 -1823 -1809
-273 -60 92 -57 -5075 -53 l-4720 3 -115 22 c-364 71 -651 185 -931 370 -369
245 -656 573 -845 967 -134 280 -205 534 -234 850 -13 146 -13 1684 0 1830 54
579 290 1090 688 1494 342 345 746 568 1217 671 232 50 -25 48 5030 46 l4730
-1 124 -23z"/>
<path d="M5790 10620 c-415 -58 -752 -359 -862 -768 -31 -117 -36 -328 -10
-452 41 -199 129 -366 269 -511 136 -141 297 -235 488 -285 87 -23 120 -27
250 -27 130 0 163 4 250 27 527 139 853 645 760 1181 -43 244 -190 482 -395
637 -93 70 -247 144 -364 173 -112 28 -283 39 -386 25z"/>
<path d="M12199 10620 c-279 -33 -560 -205 -720 -442 -60 -87 -116 -214 -146
-326 -23 -84 -26 -117 -26 -252 0 -135 3 -168 26 -252 80 -302 275 -540 551
-673 504 -244 1120 -31 1366 470 232 476 68 1048 -381 1328 -200 125 -429 175
-670 147z"/>
</g>
</svg>
