<?xml version="1.0" encoding="UTF-8"?>
<svg version="1.1" xmlns="http://www.w3.org/2000/svg" width="224" height="240">
<path d="M0 0 C73.92 0 147.84 0 224 0 C224 79.2 224 158.4 224 240 C150.08 240 76.16 240 0 240 C0 160.8 0 81.6 0 0 Z " fill="#020202" transform="translate(0,0)"/>
<path d="M0 0 C0.33 0 0.66 0 1 0 C1.00546844 1.63705147 1.00546844 1.63705147 1.01104736 3.30717468 C1.04798886 13.59238065 1.10575235 23.87728699 1.18390274 34.16226482 C1.22341164 39.44990467 1.25558343 44.73737714 1.27099609 50.02514648 C1.28614012 55.12818498 1.32054574 60.23076338 1.36830902 65.33359718 C1.38314606 67.28039361 1.39104234 69.22725572 1.39188385 71.17410851 C1.39424827 73.90132064 1.42128514 76.62725588 1.45410156 79.35424805 C1.4490712 80.15913666 1.44404083 80.96402527 1.43885803 81.79330444 C1.53242296 86.81909215 2.3647643 89.4919174 6 93 C11.5806316 96.03705113 17.75378325 95.32951628 23.9375 95.3125 C25.10474609 95.32861328 26.27199219 95.34472656 27.47460938 95.36132812 C35.71741053 95.48422634 35.71741053 95.48422634 43 92 C45.14163906 88.70463776 45.23489875 86.02007747 45.1953125 82.140625 C45.18886719 81.02558594 45.18242187 79.91054687 45.17578125 78.76171875 C45.15902344 77.60285156 45.14226562 76.44398438 45.125 75.25 C45.11597656 74.07566406 45.10695313 72.90132813 45.09765625 71.69140625 C45.07410063 68.79406464 45.04120652 65.89713559 45 63 C44.40461426 62.98541748 43.80922852 62.97083496 43.19580078 62.95581055 C40.50486949 62.88145656 37.81519667 62.78475813 35.125 62.6875 C34.18785156 62.66494141 33.25070313 62.64238281 32.28515625 62.61914062 C31.38925781 62.58369141 30.49335938 62.54824219 29.5703125 62.51171875 C28.74289551 62.48553467 27.91547852 62.45935059 27.06298828 62.43237305 C25 62 25 62 23 59 C22.74121094 56.67163086 22.74121094 56.67163086 22.734375 53.96484375 C22.73179687 52.99095703 22.72921875 52.01707031 22.7265625 51.01367188 C22.73429687 49.99853516 22.74203125 48.98339844 22.75 47.9375 C22.73839844 46.40899414 22.73839844 46.40899414 22.7265625 44.84960938 C22.72914063 43.87701172 22.73171875 42.90441406 22.734375 41.90234375 C22.73663086 41.01023193 22.73888672 40.11812012 22.74121094 39.19897461 C23 37 23 37 25 35 C27.16320801 34.75276184 27.16320801 34.75276184 29.87695312 34.75708008 C30.89140503 34.75400345 31.90585693 34.75092682 32.9510498 34.74775696 C34.05001587 34.75494247 35.14898193 34.76212799 36.28125 34.76953125 C37.96788757 34.77021858 37.96788757 34.77021858 39.68859863 34.7709198 C42.06926527 34.77394488 44.44992988 34.78183876 46.83056641 34.79418945 C50.48477146 34.81242401 54.13872299 34.81469933 57.79296875 34.81445312 C60.1015647 34.81936899 62.41015893 34.82519761 64.71875 34.83203125 C65.81771606 34.83314407 66.91668213 34.8342569 68.0489502 34.83540344 C69.57062805 34.84497322 69.57062805 34.84497322 71.12304688 34.85473633 C72.01858276 34.85854813 72.91411865 34.86235992 73.83679199 34.86628723 C76 35 76 35 78 36 C78.09326839 43.24178262 78.16404967 50.48343272 78.20724869 57.72569752 C78.22799721 61.08972925 78.25607591 64.4533458 78.30175781 67.81713867 C78.35062704 71.69721156 78.37305005 75.57670526 78.390625 79.45703125 C78.41127014 80.64706253 78.43191528 81.83709381 78.45318604 83.06318665 C78.45624707 94.61692532 75.43413739 103.81112131 67.75 112.5625 C58.39982044 120.85015915 48.46356844 123.47795854 36.12890625 123.3984375 C34.62444191 123.40274277 34.62444191 123.40274277 33.08958435 123.40713501 C30.98281281 123.40916313 28.8760219 123.40372168 26.76928711 123.39111328 C23.57427135 123.37505915 20.38052365 123.39099671 17.18554688 123.41015625 C15.12499725 123.40817327 13.06444841 123.40432845 11.00390625 123.3984375 C9.59402184 123.40754654 9.59402184 123.40754654 8.15565491 123.4168396 C-3.39742682 123.29650101 -12.48373362 120.57674217 -20.68359375 112.30078125 C-33.55465923 98.01742928 -32.6997637 78.30032761 -31.81347656 60.07910156 C-30.96431253 48.90137496 -25.60945676 40.92034784 -19.12744141 32.06494141 C-15.4502333 26.76729732 -12.3923192 21.11572716 -9.25952148 15.48492432 C-7.56072161 12.43851691 -5.83380799 9.40865915 -4.10546875 6.37890625 C-3.52949951 5.3638501 -2.95353027 4.34879395 -2.36010742 3.30297852 C-1 1 -1 1 0 0 Z " fill="#FCFCFC" transform="translate(125,97)"/>
<path d="M0 0 C0.84968857 -0.00426498 1.69937714 -0.00852997 2.57481384 -0.01292419 C3.50890579 -0.01247101 4.44299774 -0.01201782 5.40539551 -0.0115509 C6.3875856 -0.01490952 7.3697757 -0.01826813 8.38172913 -0.02172852 C11.64028169 -0.03125612 14.89878299 -0.03318243 18.15734863 -0.03425598 C20.4141441 -0.03746691 22.67093935 -0.04083085 24.92773438 -0.04434204 C29.66231774 -0.05033757 34.39688283 -0.05218147 39.13146973 -0.05158997 C45.21158318 -0.05148823 51.29158015 -0.06515052 57.37166595 -0.08236217 C62.03322899 -0.09345494 66.69476361 -0.09551003 71.3563385 -0.09498024 C73.59872337 -0.09616409 75.84110889 -0.10060836 78.08348083 -0.10831261 C81.21300535 -0.11805921 84.34227353 -0.11525581 87.47180176 -0.10920715 C88.40589371 -0.11482666 89.33998566 -0.12044617 90.30238342 -0.12623596 C91.15207199 -0.12204147 92.00176056 -0.11784698 92.87719727 -0.11352539 C93.98774853 -0.11434254 93.98774853 -0.11434254 95.12073517 -0.1151762 C96.93859863 0.13371277 96.93859863 0.13371277 98.93859863 2.13371277 C99.1973877 4.44035339 99.1973877 4.44035339 99.20422363 7.28996277 C99.20809082 8.82330261 99.20809082 8.82330261 99.21203613 10.38761902 C99.20430176 11.45882996 99.19656738 12.53004089 99.18859863 13.63371277 C99.2002002 15.24052917 99.2002002 15.24052917 99.21203613 16.87980652 C99.20945801 17.90203308 99.20687988 18.92425964 99.20422363 19.97746277 C99.20196777 20.91783386 99.19971191 21.85820496 99.1973877 22.82707214 C98.93859863 25.13371277 98.93859863 25.13371277 96.93859863 27.13371277 C94.36280478 27.37900858 91.88630857 27.5071307 89.30578613 27.54777527 C88.5539505 27.56714142 87.80211487 27.58650757 87.02749634 27.60646057 C84.62297965 27.66630424 82.2184152 27.71266003 79.81359863 27.75871277 C78.18467135 27.79688822 76.55576435 27.8359397 74.92687988 27.87590027 C70.93095058 27.97200943 66.93492677 28.05602218 62.93859863 28.13371277 C62.96643936 29.95177429 62.96643936 29.95177429 62.99484253 31.80656433 C63.16200687 43.33663061 63.25292385 54.86522921 63.27281761 66.39651489 C63.28539414 72.32255534 63.32305501 78.24603276 63.42199707 84.17131042 C64.20775123 133.29980135 64.20775123 133.29980135 49.65686035 150.97575378 C47.12293496 154.15810197 45.23858613 157.60776841 43.31750488 161.18058777 C42.6723291 162.31238464 42.02715332 163.44418152 41.36242676 164.61027527 C40.74818848 165.69050964 40.1339502 166.77074402 39.50109863 167.88371277 C34.69400505 176.32873748 29.85184497 184.75000631 24.93859863 193.13371277 C24.44359863 192.14371277 24.44359863 192.14371277 23.93859863 191.13371277 C24.69543457 188.90641785 24.69543457 188.90641785 25.92297363 186.15324402 C26.36383301 185.15357605 26.80469238 184.15390808 27.25891113 183.12394714 C27.96660645 181.55096863 27.96660645 181.55096863 28.68859863 179.94621277 C29.60007877 177.89023285 30.51153761 175.83424349 31.42297363 173.77824402 C31.85674316 172.80709656 32.2905127 171.8359491 32.73742676 170.83537292 C34.16949294 167.61438831 35.56170157 164.37860019 36.93859863 161.13371277 C36.15484863 161.19558777 35.37109863 161.25746277 34.56359863 161.32121277 C33.69734863 161.25933777 32.83109863 161.19746277 31.93859863 161.13371277 C29.70258316 157.77968956 29.69059627 156.71494794 29.6980896 152.79968262 C29.69534027 151.69330444 29.69259094 150.58692627 29.6897583 149.44702148 C29.69694885 148.23286057 29.7041394 147.01869965 29.71154785 145.76774597 C29.7112558 144.48959015 29.71096375 143.21143433 29.71066284 141.89454651 C29.71008838 138.38858154 29.72185767 134.88275307 29.73581076 131.37681985 C29.74830264 127.7132869 29.7494874 124.04975091 29.75186157 120.38619995 C29.75808088 113.44828164 29.77449778 106.51042627 29.79456055 99.57253569 C29.81690554 91.6741972 29.82790945 83.77585573 29.83795142 75.8774935 C29.85886363 59.62952973 29.89404835 43.38162928 29.93859863 27.13371277 C28.40936768 27.14942322 28.40936768 27.14942322 26.84924316 27.16545105 C23.07356262 27.20160004 19.29789742 27.22459454 15.52209473 27.24357605 C13.88665191 27.25364531 12.25122714 27.26730158 10.61584473 27.28459167 C8.26765493 27.30879982 5.91970276 27.32018634 3.57141113 27.32902527 C2.47133224 27.34450912 2.47133224 27.34450912 1.34902954 27.36030579 C-0.45602834 27.36070645 -2.26047967 27.25584032 -4.06140137 27.13371277 C-6.06140137 25.13371277 -6.06140137 25.13371277 -6.28845215 22.70353699 C-6.27797852 21.70854187 -6.26750488 20.71354675 -6.25671387 19.68840027 C-6.25026855 18.61203308 -6.24382324 17.53566589 -6.23718262 16.42668152 C-6.2204248 15.29875183 -6.20366699 14.17082214 -6.18640137 13.00871277 C-6.17737793 11.87304871 -6.16835449 10.73738464 -6.15905762 9.56730652 C-6.13543235 6.75589978 -6.1024915 3.94490979 -6.06140137 1.13371277 C-3.78358465 -0.00519559 -2.52997739 0.00572668 0 0 Z " fill="#FCFCFC" transform="translate(25.0614013671875,23.866287231445313)"/>
<path d="M0 0 C1 3 1 3 -0.07421875 5.56640625 C-0.60660156 6.55511719 -1.13898438 7.54382812 -1.6875 8.5625 C-4.08265354 13.15321096 -6.19525619 17.71635525 -8.04296875 22.55078125 C-9.28704012 25.73458839 -10.64335159 28.86251171 -12 32 C-10.70964844 31.97679688 -9.41929687 31.95359375 -8.08984375 31.9296875 C-6.37240166 31.91091764 -4.65495326 31.89271875 -2.9375 31.875 C-2.08994141 31.85824219 -1.24238281 31.84148438 -0.36914062 31.82421875 C10.03785917 31.74385582 20.00115238 35.12253406 28.15234375 41.75 C30.03450866 43.72689093 31.51906185 45.7076968 33 48 C33.5053125 48.77085938 34.010625 49.54171875 34.53125 50.3359375 C38.35325071 57.57650551 38.45780768 64.56210781 38.5 72.625 C38.50636475 73.70523438 38.51272949 74.78546875 38.51928711 75.8984375 C38.42334687 81.74198593 38.42334687 81.74198593 38 84 C33.12711606 87.24858929 27.72710186 86.36885504 22 86.375 C20.19789063 86.41173828 20.19789063 86.41173828 18.359375 86.44921875 C17.20953125 86.45308594 16.0596875 86.45695312 14.875 86.4609375 C13.82054687 86.46915527 12.76609375 86.47737305 11.6796875 86.48583984 C9 86 9 86 7.15380859 84.20336914 C5.16215107 80.40000284 5.60220198 76.13521976 5.6484375 71.93164062 C5.55924833 67.96643894 5.15637847 66.19560297 2.6484375 63.05859375 C-1.30997178 59.98177709 -4.18296684 59.87223287 -9.05859375 59.8671875 C-10.84426758 59.86525391 -10.84426758 59.86525391 -12.66601562 59.86328125 C-13.91060547 59.86714844 -15.15519531 59.87101562 -16.4375 59.875 C-17.67822266 59.87113281 -18.91894531 59.86726563 -20.19726562 59.86328125 C-21.38900391 59.86457031 -22.58074219 59.86585937 -23.80859375 59.8671875 C-24.89970459 59.86831543 -25.99081543 59.86944336 -27.11499023 59.87060547 C-29.5913723 59.98167279 -31.64092233 60.28088657 -34 61 C-32.71757052 57.63478323 -31.26700562 54.52436747 -29.48828125 51.39453125 C-28.98482178 50.50572266 -28.4813623 49.61691406 -27.96264648 48.70117188 C-27.41809814 47.74791016 -26.8735498 46.79464844 -26.3125 45.8125 C-25.74668213 44.81669922 -25.18086426 43.82089844 -24.59790039 42.79492188 C-18.2915655 31.71569172 -11.91032887 20.6794277 -5.52685547 9.64453125 C-3.674121 6.43557382 -1.83395877 3.21971814 0 0 Z " fill="#FAFAFA" transform="translate(165,27)"/>
<path d="M0 0 C0.33 0 0.66 0 1 0 C1 27.39 1 54.78 1 83 C0.67 83 0.34 83 0 83 C-0.33 57.92 -0.66 32.84 -1 7 C-1 7.66 -1 8.32 -1 9 C-1.66 9 -2.32 9 -3 9 C-3.33 9.66 -3.66 10.32 -4 11 C-5 8 -5 8 -4.0390625 5.95703125 C-3.57242188 5.24933594 -3.10578125 4.54164062 -2.625 3.8125 C-2.16351563 3.09707031 -1.70203125 2.38164063 -1.2265625 1.64453125 C-0.82179688 1.10183594 -0.41703125 0.55914062 0 0 Z " fill="#DEDEDE" transform="translate(125,97)"/>
<path d="M0 0 C0.33 0.66 0.66 1.32 1 2 C1.66 2 2.32 2 3 2 C1.46688715 7.51568187 -1.18752444 12.02034852 -4.125 16.875 C-4.59292969 17.65875 -5.06085937 18.4425 -5.54296875 19.25 C-6.69018108 21.16982472 -7.8426007 23.08630561 -9 25 C-9.33 24.34 -9.66 23.68 -10 23 C-9.19555664 20.66162109 -9.19555664 20.66162109 -7.91015625 17.7734375 C-7.45576172 16.7421875 -7.00136719 15.7109375 -6.53320312 14.6484375 C-6.04787109 13.56820312 -5.56253906 12.48796875 -5.0625 11.375 C-4.34030273 9.74304688 -4.34030273 9.74304688 -3.60351562 8.078125 C-2.40928576 5.38223977 -1.20785328 2.68980242 0 0 Z " fill="#C6C6C6" transform="translate(59,192)"/>
<path d="M0 0 C1 3 1 3 -0.07421875 5.56640625 C-0.60660156 6.55511719 -1.13898438 7.54382812 -1.6875 8.5625 C-4.49291492 13.93137099 -6.86879498 19.33350195 -9 25 C-9.99 25 -10.98 25 -12 25 C-12.33 24.34 -12.66 23.68 -13 23 C-11.92016602 20.66162109 -11.92016602 20.66162109 -10.25390625 17.7734375 C-9.66416016 16.7421875 -9.07441406 15.7109375 -8.46679688 14.6484375 C-7.83837891 13.56820312 -7.20996094 12.48796875 -6.5625 11.375 C-5.93794922 10.28703125 -5.31339844 9.1990625 -4.66992188 8.078125 C-3.12038301 5.38121767 -1.5634896 2.68883594 0 0 Z " fill="#CCCCCC" transform="translate(165,27)"/>
<path d="M0 0 C0.95412881 2.57614778 1.01981848 3.91676239 0.375 6.625 C-1.35735784 9.61725444 -2.75066778 10.02520033 -6 11 C-6.99 11.495 -6.99 11.495 -8 12 C-6.14317911 7.00086685 -4.52148281 3.01432188 0 0 Z " fill="#E9E9E9" transform="translate(154,50)"/>
<path d="M0 0 C1.32 0.66 2.64 1.32 4 2 C2.68 4.64 1.36 7.28 0 10 C-0.99 10 -1.98 10 -3 10 C-3.36629408 5.72656908 -2.40814077 3.51187196 0 0 Z " fill="#EAEAEA" transform="translate(63,184)"/>
<path d="M0 0 C0.625 1.8125 0.625 1.8125 1 4 C0.01 5.485 0.01 5.485 -1 7 C-1 7.66 -1 8.32 -1 9 C-1.66 9 -2.32 9 -3 9 C-3.33 9.66 -3.66 10.32 -4 11 C-5 8 -5 8 -4.00390625 5.95703125 C-3.52824219 5.24933594 -3.05257812 4.54164062 -2.5625 3.8125 C-2.08941406 3.09707031 -1.61632812 2.38164063 -1.12890625 1.64453125 C-0.75636719 1.10183594 -0.38382812 0.55914062 0 0 Z " fill="#D7D7D7" transform="translate(125,97)"/>
</svg>
